Coordinates
version=1
nRows=5
nColumns=40
inDegrees=yes

Units are S.I. units (second, meters, Newtons, ...)
Angles are in degrees.

endheader
time	pelvis_tilt	pelvis_list	pelvis_rotation	pelvis_tx	pelvis_ty	pelvis_tz	hip_flexion_r	hip_adduction_r	hip_rotation_r	knee_angle_r	knee_angle_r_beta	ankle_angle_r	subtalar_angle_r	mtp_angle_r	hip_flexion_l	hip_adduction_l	hip_rotation_l	knee_angle_l	knee_angle_l_beta	ankle_angle_l	subtalar_angle_l	mtp_angle_l	lumbar_extension	lumbar_bending	lumbar_rotation	arm_flex_r	arm_add_r	arm_rot_r	elbow_flex_r	pro_sup_r	wrist_flex_r	wrist_dev_r	arm_flex_l	arm_add_l	arm_rot_l	elbow_flex_l	pro_sup_l	wrist_flex_l	wrist_dev_l
      9.39000000	     -0.32484266	     -4.37379910	      2.84187722	      1.09121171	      0.93695208	      0.50369439	      7.18084488	      2.83122276	    -18.40309588	     14.30486177	     14.30486177	      9.72560073	      1.23301661	     -5.63428479	     26.31715196	    -14.82831847	     -1.82740498	     55.66859094	     55.66859094	     10.92327209	    -18.33283999	     11.17120242	    -10.67706061	      7.09577293	      3.28995811	     26.19960608	    -19.47492804	     -4.24570728	     53.71256255	     45.01398083	      0.00000000	      0.00000000	     -3.29893406	     -9.31081399	      0.65420257	     32.97356430	     44.62493186	      0.00000000	      0.00000000
      9.40357143	     -0.61411803	     -4.29526060	      3.34984682	      1.09059524	      0.93706652	      0.50413818	      6.75433970	      2.87916776	    -18.90307653	     13.60816886	     13.60816886	      9.74325239	      1.58726360	     -5.80656319	     27.44089958	    -14.61562925	     -2.07042294	     52.83233213	     52.83233213	     11.10437882	    -18.32513859	     11.56315629	    -10.34556018	      7.03364075	      3.35055915	     27.76575627	    -19.64512858	     -4.35183167	     54.40682660	     45.00710446	      0.00000000	      0.00000000	     -4.08779016	     -9.09726720	      0.78569963	     32.16274163	     44.61046517	      0.00000000	      0.00000000
      9.41714286	     -0.66847436	     -4.21277891	      3.89915052	      1.09014281	      0.93750115	      0.50448411	      5.89750967	      2.99264856	    -19.49099323	     12.57973292	     12.57973292	      9.67734946	      2.14044394	     -6.07203950	     28.03368905	    -14.28523133	     -2.27055721	     49.56378592	     49.56378592	     11.07316161	    -18.30763914	     11.86368658	    -10.27278727	      6.98088581	      3.20112880	     29.43340527	    -19.66949554	     -4.40886265	     55.59300489	     44.98299004	      0.00000000	      0.00000000	     -4.98515271	     -8.93860826	      0.92592430	     31.36370136	     44.59827320	      0.00000000	      0.00000000
      9.43071429	     -0.96148502	     -4.24888323	      4.36952892	      1.08944087	      0.93725770	      0.50484171	      5.59998633	      3.15430867	    -19.88488503	     12.07344211	     12.07344211	      9.75592546	      2.23609182	     -6.20575424	     28.81527570	    -14.04867480	     -2.50896157	     46.22463788	     46.22463788	     11.09837188	    -17.94833841	     12.21804494	     -9.95729426	      7.04148860	      3.51330431	     31.02387183	    -20.23031236	     -4.59649231	     56.42019731	     44.97225705	      0.00000000	      0.00000000	     -5.78694867	     -8.67517210	      0.99382540	     31.01955061	     44.58308383	      0.00000000	      0.00000000
      9.44428571	     -0.92017326	     -4.08573810	      4.85248980	      1.08907365	      0.93774284	      0.50502780	      4.54521385	      3.23930196	    -20.39249200	     10.84295877	     10.84295877	      9.60596842	      2.90163128	     -6.50690831	     28.81606967	    -13.45876936	     -2.67798573	     42.36989180	     42.36989180	     10.81676531	    -17.77848022	     12.42448470	    -10.05772181	      6.88024021	      3.30539674	     32.48891094	    -20.11205606	     -4.59141298	     58.07953093	     44.92708500	      0.00000000	      0.00000000	     -6.73833411	     -8.61802877	      1.10103837	     30.49333169	     44.57056880	      0.00000000	      0.00000000
